<svg width="18" height="18" viewBox="0 0 18 18" fill="none" xmlns="http://www.w3.org/2000/svg">
<path d="M5.25814 15.5015C6.35938 16.1366 7.63711 16.5 8.9997 16.5C13.1418 16.5 16.5 13.1421 16.5 9C16.5 4.85786 13.1421 1.5 9 1.5C4.85786 1.5 1.5 4.85786 1.5 9C1.5 10.3626 1.86337 11.6403 2.49849 12.7416L2.50095 12.7458C2.56207 12.8518 2.59288 12.9052 2.60684 12.9557C2.62001 13.0033 2.62368 13.0462 2.62031 13.0955C2.61669 13.1484 2.59884 13.2034 2.56224 13.3132L1.92155 15.2352L1.92074 15.2377C1.78557 15.6433 1.71798 15.846 1.76615 15.9811C1.80816 16.0989 1.9014 16.1919 2.01921 16.2339C2.15401 16.282 2.35587 16.2147 2.75962 16.0801L2.76465 16.0783L4.68671 15.4376C4.79614 15.4011 4.85178 15.3826 4.90466 15.379C4.95396 15.3756 4.99648 15.3801 5.04411 15.3932C5.09474 15.4072 5.1482 15.4381 5.2547 15.4995L5.25814 15.5015Z" stroke="#111111" stroke-width="2" stroke-linecap="round" stroke-linejoin="round"/>
</svg>
